<svg width="165" height="28" viewBox="0 0 165 28" fill="none" xmlns="http://www.w3.org/2000/svg">
<path d="M30.4607 10.613C30.3538 10.6392 30.1222 10.7092 29.9619 10.7267C30.2647 10.438 30.4429 10.088 30.4429 9.79922C30.3004 9.84297 30.042 9.93922 29.8104 9.99172C30.2737 9.60672 30.532 9.15172 30.4162 8.55672C30.2737 8.62672 30.0777 8.74047 29.8728 8.81922C30.2826 8.20672 30.2737 7.66422 30.1044 7.34922C29.9262 7.51547 29.7035 7.70797 29.4719 7.84797C29.6233 7.13922 29.6144 6.68422 29.3115 6.36047C28.9997 6.93797 28.7325 7.36672 28.296 7.87422C28.3316 7.40172 28.2781 6.81547 27.9663 6.51797C27.9663 6.51797 27.8773 7.17422 27.6456 7.38422C27.5922 6.74547 27.3873 6.39547 27.0933 6.05422C27.0933 6.05422 27.0755 6.71922 26.8884 7.13047C26.7281 6.57047 26.443 6.14172 26.0688 5.73047C26.0956 6.96422 25.7481 9.28297 24.7415 10.8492C24.6257 11.7767 24.5188 13.168 22.9865 13.9905C22.7638 13.8417 22.3807 13.6405 21.8284 13.6755C21.6859 12.9755 22.6123 12.3455 23.4141 11.838C24.2248 11.3217 24.5722 10.8842 24.5633 10.2017C24.5455 9.44922 24.0288 9.14297 23.4943 9.12547C22.7371 9.09047 22.1224 9.76422 21.9798 10.0442C21.7571 10.1492 21.1157 10.3417 20.8485 10.4117C20.5545 10.4905 20.2249 10.6042 20.0111 10.7792C20.1358 10.858 20.4921 10.8842 20.6257 10.858C20.8841 10.823 21.7037 10.6742 22.4787 10.578C22.7638 10.7267 23.2181 10.9805 22.7371 11.313C22.0689 11.733 21.7838 11.838 20.8485 12.3192C19.3696 13.0805 19.8507 14.9967 20.207 15.1367C20.207 15.7842 20.795 16.948 21.1959 17.3592C21.3741 18.173 21.1335 19.3805 20.8841 19.888C20.6792 19.398 20.3229 18.2517 20.0912 17.5867C20.3318 16.3267 19.9398 15.7667 19.6725 15.5567C19.4053 15.338 18.9777 15.3992 18.6926 15.8367C19.1202 15.793 19.2627 16.3267 19.2538 16.8867C19.2449 17.5517 19.0668 18.0942 18.5946 18.0942C18.6302 18.663 19.2538 18.8292 19.5656 18.5492C19.6191 18.6805 19.8685 19.4242 20.1001 20.0892C20.2427 20.483 20.3763 20.8505 20.4654 21.043C20.5634 21.253 21.285 21.288 21.3651 21.043C21.481 20.7192 21.57 20.4742 21.7482 20.0892C21.8818 19.8005 22.0778 19.433 22.3629 18.8905C22.5589 19.223 22.8172 19.7392 22.9598 20.0892C23.031 20.2555 23.0756 20.3867 23.0845 20.448C23.1468 20.9905 23.1112 22.9242 22.9598 24.0792C21.3473 23.6505 20.8841 24.4205 21.0266 24.998C21.2582 24.7442 21.5611 24.7792 21.7482 24.9105C21.7037 25.3305 21.8195 25.6367 22.256 25.768C22.7192 24.5605 24.3851 24.8317 24.5455 24.928C24.5544 24.6917 24.7771 24.1142 23.9219 23.9917C23.9575 22.9505 24.0644 21.673 24.1001 21.4105C24.1357 21.148 24.1713 20.9817 24.0466 20.5617C24.011 20.4392 23.9575 20.2817 23.913 20.098C23.7972 19.678 23.6903 19.1267 23.6814 18.5317C23.8328 18.6805 24.1891 18.7942 24.4297 18.7417C24.6168 19.5292 24.8929 19.3017 25.0355 19.6342C25.1067 19.8005 25.1245 19.9667 25.1424 20.1067C25.1602 20.2467 25.1869 20.3605 25.2582 20.4655C25.8283 20.483 26.3183 20.3517 26.6657 20.1067C26.7726 20.0367 26.8706 19.9492 26.9419 19.8617C26.7993 19.0217 26.5588 18.6105 26.1134 18.103C25.9976 17.4205 25.668 16.7905 25.2225 16.2305C25.7838 16.0467 26.3539 15.6005 26.6568 15.2855C26.9241 15.268 27.2359 15.0492 27.2626 14.6117C27.4229 14.5942 27.5566 14.5855 27.6813 14.5592C27.6635 14.4367 27.6367 14.2617 27.6189 14.1567C27.8238 14.1567 28.0287 14.148 28.2158 14.1305C28.1623 13.973 28.0822 13.8067 28.0287 13.6842C28.2336 13.6842 28.492 13.6667 28.6968 13.658C28.5899 13.4567 28.5009 13.273 28.4385 13.098C28.679 13.0717 29.0443 13.0192 29.3472 12.9492C29.2492 12.853 29.1423 12.748 28.973 12.5905C29.757 12.363 30.1044 11.8205 30.14 11.5842C30.0242 11.5842 29.7837 11.6367 29.6411 11.6192C30.1222 11.3392 30.4162 10.9892 30.4607 10.613Z" fill="white"/>
<path d="M14.5411 24.7966C10.1492 23.1866 9.58798 19.6516 9.57016 18.0416C9.57016 18.0416 9.56125 18.0416 9.55234 18.0416C9.56125 17.9978 9.56125 17.9628 9.57016 17.9278C9.57016 17.5778 9.59689 17.3416 9.6058 17.2628C9.59689 17.0353 9.56125 16.8516 9.51671 16.7203C9.5078 16.6941 9.48998 16.6678 9.47217 16.6328V18.2953C9.47217 20.1591 10.167 21.7691 11.5389 23.0728C12.7416 24.2191 14.0957 24.7528 14.4787 24.8841L14.5411 24.9016L14.6035 24.8841C14.9865 24.7441 16.3406 24.2191 17.5433 23.0728C18.9152 21.7691 19.61 20.1591 19.61 18.2953V17.9891C19.5744 18.0416 19.5388 18.0766 19.5031 18.1203C19.4675 18.9603 19.3072 20.2553 18.737 21.2353C18.0689 22.6091 17.0266 23.7378 14.5411 24.7966Z" fill="white"/>
<path d="M25.0619 25.8729C24.8481 25.9341 24.5809 25.9779 24.1889 25.9779H23.6989C22.0152 25.9429 20.287 25.4529 19.2268 24.3854C20.6878 22.9329 18.9685 21.7429 18.042 22.9679C17.748 23.3529 17.5164 23.6241 17.3204 24.0004C17.1601 24.2979 17.2759 24.6041 17.6411 25.0679C17.8371 25.3216 18.336 25.7154 18.7458 25.9779H10.3362C10.737 25.7154 11.2359 25.3216 11.4408 25.0679C11.8061 24.6041 11.9308 24.3066 11.7615 24.0004C11.5566 23.6241 11.325 23.3529 11.0399 22.9679C10.1134 21.7341 8.3941 22.9329 9.8551 24.3854C8.79499 25.4529 7.06674 25.9429 5.38303 25.9779H4.91979C4.52781 25.9779 4.26056 25.9429 4.04675 25.8729C3.69932 25.7941 3.61915 25.9341 3.80622 26.5291C3.93094 26.9141 4.03785 27.5616 4.08239 27.9991H25.0263C25.0708 27.5616 25.1777 26.9141 25.3024 26.5204C25.4895 25.9341 25.4093 25.7854 25.0619 25.8729ZM18.5053 23.0204C18.7814 22.6616 19.1823 22.7579 19.3427 23.0554C19.5208 23.3791 19.2625 23.7729 18.915 24.0879C18.4429 23.5804 18.3894 23.1691 18.5053 23.0204ZM17.8104 24.7091C17.6411 24.4729 17.5788 24.3416 17.6679 24.1141C17.7569 23.8954 17.9351 23.7029 18.1133 23.4316C18.4073 24.5516 20.1266 25.6191 21.4005 25.9779H19.3694C18.8616 25.6891 18.1935 25.2341 17.8104 24.7091ZM9.73038 23.0554C9.89964 22.7579 10.3005 22.6616 10.5678 23.0204C10.6836 23.1779 10.6301 23.5804 10.158 24.0879C9.81056 23.7729 9.55221 23.3791 9.73038 23.0554ZM10.9598 23.4229C11.1468 23.6941 11.325 23.8954 11.4052 24.1054C11.4943 24.3329 11.4408 24.4729 11.2716 24.7004C10.8885 25.2254 10.2203 25.6804 9.69475 25.9604H7.67251C8.94643 25.6191 10.6658 24.5429 10.9598 23.4229ZM24.661 27.6754H4.44764C4.35855 27.0454 4.23383 26.6341 4.12693 26.2929H24.9906C24.8748 26.6341 24.7501 27.0454 24.661 27.6754Z" fill="white"/>
<path d="M20.4653 26.8794C20.4653 26.7044 20.4653 26.6694 20.4653 26.6344C20.4653 26.5906 20.4742 26.5731 20.5098 26.5644C20.5276 26.5644 20.5454 26.5644 20.5543 26.5644C20.5722 26.5644 20.5722 26.5644 20.5722 26.5556C20.5722 26.5469 20.5632 26.5469 20.5454 26.5469C20.5009 26.5469 20.4118 26.5469 20.3851 26.5469C20.3494 26.5469 20.2782 26.5469 20.2247 26.5469C20.2069 26.5469 20.198 26.5469 20.198 26.5556C20.198 26.5644 20.2069 26.5644 20.2158 26.5644C20.2336 26.5644 20.2425 26.5644 20.2604 26.5644C20.296 26.5731 20.3049 26.5906 20.3138 26.6344C20.3138 26.6694 20.3138 26.7044 20.3138 26.8794V27.0894C20.3138 27.1944 20.3138 27.2906 20.3049 27.3431C20.296 27.3781 20.296 27.4044 20.2693 27.4131C20.2604 27.4131 20.2425 27.4131 20.2247 27.4131C20.2069 27.4131 20.2069 27.4219 20.2069 27.4219C20.2069 27.4306 20.2158 27.4306 20.2336 27.4306C20.2782 27.4306 20.3584 27.4306 20.3851 27.4306C20.4831 27.4306 20.5632 27.4394 20.7325 27.4394C20.7949 27.4394 20.8038 27.4306 20.8038 27.4044C20.8127 27.3694 20.8216 27.2819 20.8216 27.2644C20.8216 27.2469 20.8216 27.2469 20.8127 27.2469C20.8038 27.2469 20.8038 27.2556 20.8038 27.2644C20.8038 27.2906 20.786 27.3169 20.7681 27.3344C20.7414 27.3606 20.688 27.3694 20.6256 27.3694C20.5365 27.3694 20.5009 27.3606 20.4831 27.3431C20.4563 27.3169 20.4563 27.2381 20.4563 27.0894V26.8794H20.4653Z" fill="white"/>
<path d="M22.0329 27.4491C22.0952 27.4491 22.1664 27.4403 22.2198 27.4053C22.3088 27.3528 22.3355 27.2653 22.3355 27.2041C22.3355 27.0903 22.2821 27.0116 22.1397 26.9066L22.1041 26.8803C22.0062 26.8103 21.9794 26.7666 21.9794 26.7141C21.9794 26.6441 22.0329 26.5916 22.1219 26.5916C22.202 26.5916 22.2376 26.6266 22.2554 26.6528C22.2821 26.6791 22.291 26.7228 22.291 26.7316C22.291 26.7491 22.2999 26.7491 22.2999 26.7491C22.3088 26.7491 22.3088 26.7403 22.3088 26.7141C22.3088 26.6266 22.3177 26.5916 22.3177 26.5741C22.3177 26.5653 22.3088 26.5653 22.2999 26.5566C22.2732 26.5478 22.2198 26.5391 22.1397 26.5391C21.9705 26.5391 21.8637 26.6353 21.8637 26.7578C21.8637 26.8541 21.9082 26.9328 22.0418 27.0378L22.0952 27.0816C22.1931 27.1603 22.2109 27.2128 22.2109 27.2741C22.2109 27.3353 22.1575 27.4053 22.0507 27.4053C21.9794 27.4053 21.9082 27.3703 21.8815 27.2828C21.8726 27.2653 21.8726 27.2391 21.8726 27.2216C21.8726 27.2128 21.8726 27.1953 21.8637 27.1953C21.8548 27.1953 21.8548 27.2128 21.8459 27.2303C21.8459 27.2478 21.837 27.3178 21.837 27.3791C21.837 27.4053 21.837 27.4141 21.8637 27.4228C21.9082 27.4403 21.9616 27.4491 22.0329 27.4491Z" fill="white"/>
<path d="M21.2046 27.0903C21.2046 27.2041 21.2046 27.3003 21.1957 27.3528C21.1957 27.3878 21.1868 27.4053 21.1601 27.4141C21.1512 27.4141 21.1334 27.4141 21.1156 27.4141C21.0978 27.4141 21.0978 27.4228 21.0978 27.4228C21.0978 27.4316 21.1067 27.4316 21.1245 27.4316C21.1779 27.4316 21.2491 27.4316 21.2758 27.4316C21.3114 27.4316 21.3826 27.4316 21.4627 27.4316C21.4716 27.4316 21.4894 27.4316 21.4894 27.4228C21.4894 27.4141 21.4805 27.4141 21.4716 27.4141C21.4538 27.4141 21.4271 27.4141 21.4093 27.4141C21.3737 27.4053 21.3648 27.3878 21.3648 27.3528C21.3559 27.3003 21.3559 27.2128 21.3559 27.0903V26.8803C21.3559 26.7053 21.3559 26.6703 21.3559 26.6353C21.3559 26.5916 21.3648 26.5741 21.4004 26.5653C21.4182 26.5653 21.4182 26.5653 21.436 26.5653C21.4538 26.5653 21.4538 26.5653 21.4538 26.5478C21.4538 26.5391 21.4449 26.5391 21.4271 26.5391C21.3826 26.5391 21.3114 26.5391 21.2847 26.5391C21.2491 26.5391 21.1779 26.5391 21.1245 26.5391C21.1067 26.5391 21.0978 26.5391 21.0978 26.5478C21.0978 26.5566 21.1067 26.5653 21.1156 26.5653C21.1334 26.5653 21.1512 26.5653 21.1601 26.5653C21.1868 26.5741 21.1957 26.5916 21.2046 26.6353C21.2046 26.6703 21.2046 26.7053 21.2046 26.8803V27.0903Z" fill="white"/>
<path d="M18.1045 27.0903C18.1045 27.1953 18.1045 27.2916 18.0955 27.3441C18.0955 27.3791 18.0866 27.4053 18.0599 27.4053C18.051 27.4053 18.0332 27.4053 18.0154 27.4053C18.0065 27.4053 17.9976 27.4053 17.9976 27.4141C17.9976 27.4228 18.0065 27.4228 18.0243 27.4228C18.0688 27.4228 18.149 27.4228 18.1757 27.4228C18.2381 27.4228 18.345 27.4316 18.4341 27.4316C18.6568 27.4316 18.7815 27.3528 18.835 27.2916C18.9062 27.2216 18.9686 27.1078 18.9686 26.9678C18.9686 26.8278 18.9151 26.7316 18.8528 26.6703C18.7191 26.5391 18.5232 26.5391 18.3717 26.5391C18.3004 26.5391 18.2203 26.5391 18.1846 26.5391C18.149 26.5391 18.0777 26.5391 18.0154 26.5391C17.9976 26.5391 17.9886 26.5391 17.9886 26.5478C17.9886 26.5566 17.9976 26.5566 18.0065 26.5566C18.0243 26.5566 18.0421 26.5566 18.051 26.5566C18.0866 26.5653 18.0955 26.5828 18.1045 26.6266C18.1045 26.6616 18.1045 26.6966 18.1045 26.8716V27.0903ZM18.2559 26.8628V26.6266C18.2559 26.6178 18.2648 26.6091 18.2737 26.6003C18.2826 26.6003 18.3272 26.5916 18.3539 26.5916C18.4519 26.5916 18.5855 26.6091 18.6924 26.7141C18.7459 26.7666 18.8082 26.8541 18.8082 27.0028C18.8082 27.1253 18.7815 27.2303 18.7102 27.3003C18.639 27.3616 18.5588 27.3878 18.4341 27.3878C18.3361 27.3878 18.2915 27.3616 18.2737 27.3441C18.2648 27.3266 18.2648 27.2828 18.2559 27.2566C18.2559 27.2303 18.2559 27.1428 18.2559 27.0203V26.8628Z" fill="white"/>
<path d="M17.3828 27.0903C17.3828 27.2041 17.3828 27.3003 17.3739 27.3528C17.3739 27.3878 17.365 27.4053 17.3383 27.4141C17.3294 27.4141 17.3116 27.4141 17.2938 27.4141C17.276 27.4141 17.276 27.4228 17.276 27.4228C17.276 27.4316 17.2849 27.4316 17.3027 27.4316C17.3472 27.4316 17.4273 27.4316 17.454 27.4316C17.4896 27.4316 17.5608 27.4316 17.6409 27.4316C17.6498 27.4316 17.6587 27.4316 17.6587 27.4228C17.6587 27.4141 17.6498 27.4141 17.6409 27.4141C17.6231 27.4141 17.5964 27.4141 17.5786 27.4141C17.543 27.4053 17.5341 27.3878 17.5341 27.3528C17.5341 27.3003 17.5341 27.2128 17.5341 27.0903V26.8803C17.5341 26.7053 17.5341 26.6703 17.5341 26.6353C17.5341 26.5916 17.543 26.5741 17.5786 26.5653C17.5875 26.5653 17.6053 26.5653 17.6142 26.5653C17.6231 26.5653 17.632 26.5653 17.632 26.5478C17.632 26.5391 17.6231 26.5391 17.6053 26.5391C17.5608 26.5391 17.4896 26.5391 17.4629 26.5391C17.4273 26.5391 17.3561 26.5391 17.3116 26.5391C17.2938 26.5391 17.2849 26.5391 17.2849 26.5478C17.2849 26.5566 17.2938 26.5653 17.3027 26.5653C17.3116 26.5653 17.3294 26.5653 17.3472 26.5653C17.3739 26.5741 17.3828 26.5916 17.3917 26.6353C17.3917 26.6703 17.3917 26.7053 17.3917 26.8803V27.0903H17.3828Z" fill="white"/>
<path d="M16.6169 26.9941C16.6169 26.9853 16.6169 26.9853 16.6258 26.9853C16.6436 26.9853 16.7683 26.9853 16.8039 26.9941C16.8396 26.9941 16.8574 27.0203 16.8663 27.0378C16.8663 27.0553 16.8752 27.0641 16.8752 27.0728C16.8752 27.0816 16.8752 27.0903 16.8841 27.0903C16.893 27.0903 16.893 27.0816 16.893 27.0641C16.893 27.0553 16.893 27.0028 16.9019 26.9766C16.9019 26.9416 16.9108 26.9153 16.9108 26.9066C16.9108 26.8978 16.9108 26.8978 16.9019 26.8978C16.893 26.8978 16.893 26.9066 16.8841 26.9066C16.8752 26.9241 16.8574 26.9241 16.8307 26.9241C16.8129 26.9241 16.795 26.9241 16.7772 26.9241H16.6258C16.6169 26.9241 16.6169 26.9241 16.6169 26.9153V26.6266C16.6169 26.6178 16.6258 26.6091 16.6258 26.6091L16.8129 26.6178C16.8574 26.6178 16.8841 26.6353 16.893 26.6528C16.9019 26.6703 16.9019 26.6878 16.9019 26.6966C16.9019 26.7141 16.9019 26.7141 16.9108 26.7141C16.9198 26.7141 16.9198 26.7053 16.9198 26.6966C16.9198 26.6791 16.9198 26.6091 16.9287 26.6003C16.9376 26.5741 16.9376 26.5566 16.9376 26.5478C16.9376 26.5391 16.9376 26.5391 16.9287 26.5391C16.9198 26.5391 16.9198 26.5478 16.9108 26.5478C16.9019 26.5478 16.8841 26.5478 16.8574 26.5478H16.5456C16.51 26.5478 16.4387 26.5478 16.3763 26.5478C16.3585 26.5478 16.3496 26.5478 16.3496 26.5566C16.3496 26.5653 16.3585 26.5653 16.3674 26.5653C16.3852 26.5653 16.4031 26.5653 16.412 26.5653C16.4476 26.5741 16.4565 26.5916 16.4654 26.6353C16.4654 26.6703 16.4654 26.7053 16.4654 26.8803V27.0903C16.4654 27.2041 16.4654 27.2916 16.4565 27.3441C16.4476 27.3791 16.4476 27.4053 16.4209 27.4053C16.412 27.4053 16.3942 27.4053 16.3763 27.4053C16.3585 27.4053 16.3585 27.4141 16.3585 27.4141C16.3585 27.4228 16.3674 27.4228 16.3852 27.4228C16.4298 27.4228 16.5011 27.4228 16.5367 27.4228C16.5723 27.4228 16.6436 27.4228 16.7149 27.4228C16.7327 27.4228 16.7416 27.4228 16.7416 27.4141C16.7416 27.4053 16.7327 27.4053 16.7238 27.4053C16.7059 27.4053 16.6792 27.4053 16.6614 27.4053C16.6258 27.3966 16.6169 27.3703 16.6169 27.3441C16.608 27.2916 16.608 27.2041 16.608 27.0903V26.9941H16.6169Z" fill="white"/>
<path d="M9.02682 27.0903C9.02682 27.1953 9.02682 27.2916 9.01791 27.3441C9.01791 27.3791 9.009 27.4053 8.98228 27.4053C8.97337 27.4053 8.95555 27.4053 8.93773 27.4053C8.91992 27.4053 8.91992 27.4053 8.91992 27.4141C8.91992 27.4228 8.92883 27.4228 8.94664 27.4228C8.99118 27.4228 9.07136 27.4228 9.09809 27.4228C9.16045 27.4228 9.26735 27.4316 9.35643 27.4316C9.57915 27.4316 9.70387 27.3528 9.75732 27.2916C9.82858 27.2216 9.89094 27.1078 9.89094 26.9678C9.89094 26.8278 9.83749 26.7316 9.77513 26.6703C9.64151 26.5391 9.44552 26.5391 9.29407 26.5391C9.22281 26.5391 9.14263 26.5391 9.107 26.5391C9.07136 26.5391 9.00009 26.5391 8.92883 26.5391C8.91101 26.5391 8.9021 26.5391 8.9021 26.5478C8.9021 26.5566 8.91101 26.5566 8.91992 26.5566C8.93773 26.5566 8.95555 26.5566 8.97337 26.5566C9.009 26.5653 9.01791 26.5828 9.02682 26.6266C9.02682 26.6616 9.02682 26.6966 9.02682 26.8716V27.0903ZM9.17826 26.8628C9.17826 26.7753 9.17826 26.6703 9.17826 26.6266C9.17826 26.6178 9.18717 26.6091 9.19608 26.6003C9.20499 26.6003 9.24953 26.5916 9.27626 26.5916C9.37425 26.5916 9.50788 26.6091 9.61478 26.7141C9.66823 26.7666 9.73059 26.8541 9.73059 27.0028C9.73059 27.1253 9.70387 27.2303 9.6326 27.3003C9.56133 27.3616 9.48115 27.3878 9.35643 27.3878C9.25844 27.3878 9.2139 27.3616 9.19608 27.3441C9.18717 27.3266 9.18717 27.2828 9.18717 27.2566C9.18717 27.2303 9.18717 27.1428 9.18717 27.0203V26.8628H9.17826Z" fill="white"/>
<path d="M7.77956 27.0553C7.77956 27.2216 7.82411 27.3091 7.88646 27.3703C7.97555 27.4491 8.09136 27.4491 8.15372 27.4491C8.2339 27.4491 8.32298 27.4403 8.40316 27.3616C8.50115 27.2828 8.51897 27.1428 8.51897 27.0028V26.8803C8.51897 26.7053 8.51897 26.6703 8.51897 26.6353C8.51897 26.5916 8.52788 26.5741 8.56351 26.5653C8.58133 26.5653 8.59024 26.5653 8.59914 26.5653C8.61696 26.5653 8.61696 26.5653 8.61696 26.5566C8.61696 26.5478 8.60805 26.5478 8.59024 26.5478C8.54569 26.5478 8.46552 26.5478 8.45661 26.5478C8.45661 26.5478 8.38534 26.5478 8.32298 26.5478C8.30516 26.5478 8.29626 26.5478 8.29626 26.5566C8.29626 26.5653 8.30516 26.5653 8.31407 26.5653C8.32298 26.5653 8.34971 26.5653 8.35862 26.5653C8.39425 26.5741 8.40316 26.5916 8.41207 26.6353C8.41207 26.6703 8.41207 26.7053 8.41207 26.8803V27.0291C8.41207 27.1516 8.41207 27.2566 8.3408 27.3178C8.28735 27.3616 8.22499 27.3791 8.17154 27.3791C8.12699 27.3791 8.07354 27.3703 8.02009 27.3266C7.95773 27.2741 7.93101 27.2041 7.93101 27.0378V26.8716C7.93101 26.6966 7.93101 26.6616 7.93101 26.6266C7.93101 26.5828 7.94882 26.5653 7.97555 26.5566C7.99337 26.5566 7.99337 26.5566 8.01118 26.5566C8.02009 26.5566 8.029 26.5566 8.029 26.5478C8.029 26.5391 8.02009 26.5391 8.00227 26.5391C7.95773 26.5391 7.88646 26.5391 7.85083 26.5391C7.8152 26.5391 7.73502 26.5391 7.67266 26.5391C7.65484 26.5391 7.64594 26.5391 7.64594 26.5478C7.64594 26.5566 7.65484 26.5566 7.66375 26.5566C7.68157 26.5566 7.69939 26.5566 7.70829 26.5566C7.75284 26.5653 7.76175 26.5828 7.76175 26.6266C7.76175 26.6616 7.76175 26.6966 7.76175 26.8716V27.0553H7.77956Z" fill="white"/>
<path d="M19.3783 27.0893C19.3783 27.1943 19.3783 27.2905 19.3694 27.343C19.3604 27.378 19.3604 27.4043 19.3337 27.4043C19.3248 27.4043 19.307 27.4043 19.2892 27.4043C19.2714 27.4043 19.2714 27.413 19.2714 27.413C19.2714 27.4218 19.2803 27.4218 19.2981 27.4218C19.3426 27.4218 19.4228 27.4218 19.4495 27.4218C19.5208 27.4218 19.601 27.4305 19.7791 27.4305C19.8237 27.4305 19.8326 27.4305 19.8415 27.3955C19.8504 27.3693 19.8593 27.2905 19.8593 27.2643C19.8593 27.2555 19.8593 27.238 19.8504 27.238C19.8415 27.238 19.8415 27.2468 19.8415 27.2555C19.8326 27.2993 19.8148 27.3255 19.7881 27.343C19.7613 27.3605 19.7079 27.3605 19.6722 27.3605C19.5475 27.3605 19.5297 27.343 19.5297 27.2643C19.5297 27.2293 19.5297 27.1243 19.5297 27.0805V26.9843C19.5297 26.9755 19.5297 26.9755 19.5386 26.9755C19.5653 26.9755 19.6812 26.9755 19.7079 26.9755C19.7524 26.9755 19.7702 26.993 19.7791 27.0193C19.7791 27.0368 19.7791 27.0543 19.7881 27.063C19.7881 27.0718 19.7881 27.0718 19.797 27.0718C19.8059 27.0718 19.8059 27.063 19.8059 27.0543C19.8059 27.0455 19.8059 27.0018 19.8148 26.9755C19.8148 26.9143 19.8237 26.8968 19.8237 26.888C19.8237 26.8793 19.8148 26.8793 19.8148 26.8793C19.8059 26.8793 19.8059 26.888 19.797 26.8968C19.7881 26.9055 19.7702 26.9143 19.7435 26.9143C19.7168 26.9143 19.5743 26.9143 19.5564 26.9143C19.5475 26.9143 19.5475 26.9143 19.5475 26.9055V26.608C19.5475 26.5993 19.5475 26.5993 19.5564 26.5993C19.5832 26.5993 19.7079 26.5993 19.7257 26.608C19.7881 26.6168 19.797 26.6255 19.8059 26.6518C19.8148 26.6693 19.8148 26.6868 19.8148 26.6955C19.8148 26.7043 19.8148 26.713 19.8237 26.713C19.8326 26.713 19.8326 26.7043 19.8326 26.6955C19.8326 26.678 19.8415 26.6255 19.8415 26.6168C19.8415 26.5643 19.8504 26.5468 19.8504 26.538C19.8504 26.5293 19.8504 26.5293 19.8415 26.5293C19.8326 26.5293 19.8326 26.538 19.8237 26.538C19.8148 26.538 19.797 26.5468 19.7702 26.5468H19.4674C19.4317 26.5468 19.3604 26.5468 19.2981 26.5468C19.2803 26.5468 19.2714 26.5468 19.2714 26.5555C19.2714 26.5643 19.2803 26.5643 19.2892 26.5643C19.307 26.5643 19.3248 26.5643 19.3337 26.5643C19.3783 26.573 19.3872 26.5905 19.3872 26.6343C19.3872 26.6693 19.3872 26.7043 19.3872 26.8793V27.0893H19.3783Z" fill="white"/>
<path d="M14.5321 27.0893C14.5321 27.1943 14.5321 27.2905 14.5232 27.3431C14.5232 27.3781 14.5143 27.4043 14.4876 27.4043C14.4787 27.4043 14.4609 27.4043 14.443 27.4043C14.4252 27.4043 14.4252 27.4131 14.4252 27.4131C14.4252 27.4218 14.4341 27.4218 14.4519 27.4218C14.5054 27.4218 14.5767 27.4218 14.6034 27.4218C14.639 27.4218 14.7103 27.4218 14.7905 27.4218C14.7994 27.4218 14.8083 27.4218 14.8083 27.4131C14.8083 27.4043 14.7994 27.4043 14.7905 27.4043C14.7727 27.4043 14.7459 27.4043 14.7281 27.4043C14.6925 27.3956 14.6836 27.3693 14.6836 27.3431C14.6747 27.2905 14.6747 27.1943 14.6747 27.0893V26.608H14.8261C14.933 26.608 14.9686 26.643 14.9686 26.678V26.6868C14.9686 26.7043 14.9775 26.713 14.9865 26.713C14.9954 26.713 14.9954 26.7043 14.9954 26.6955C14.9954 26.6605 14.9954 26.5818 14.9954 26.5643C14.9954 26.5468 14.9954 26.538 14.9865 26.538C14.9775 26.538 14.9508 26.5468 14.8706 26.5468H14.3985C14.3629 26.5468 14.3094 26.5468 14.2827 26.5468C14.256 26.5468 14.2381 26.5293 14.2292 26.5293C14.2203 26.5293 14.2203 26.538 14.2114 26.5555C14.2114 26.5643 14.1847 26.6693 14.1847 26.6868C14.1847 26.7043 14.1847 26.7043 14.1936 26.7043C14.2025 26.7043 14.2025 26.6955 14.2025 26.6868C14.2025 26.678 14.2114 26.6605 14.2203 26.643C14.2381 26.6168 14.2649 26.608 14.3361 26.608H14.5143V27.0893H14.5321Z" fill="white"/>
<path d="M11.8419 26.6605C11.8775 26.608 11.9043 26.573 11.931 26.5643C11.9488 26.5643 11.9666 26.5555 11.9755 26.5555C11.9844 26.5555 11.9933 26.5468 11.9933 26.5468C11.9933 26.538 11.9844 26.538 11.9755 26.538C11.931 26.538 11.8864 26.538 11.8597 26.538C11.8419 26.538 11.7884 26.538 11.7439 26.538C11.7261 26.538 11.7172 26.538 11.7172 26.5468C11.7172 26.5555 11.7261 26.5555 11.735 26.5555C11.7439 26.5555 11.7617 26.5555 11.7706 26.5555C11.7795 26.5555 11.7884 26.5643 11.7884 26.573C11.7884 26.5818 11.7884 26.5993 11.7795 26.6168C11.7617 26.6518 11.6548 26.8093 11.6192 26.8618C11.5746 26.783 11.5212 26.6955 11.4677 26.5993C11.4588 26.5905 11.4588 26.573 11.4588 26.5643C11.4588 26.5555 11.4588 26.5468 11.4766 26.5468C11.4856 26.5468 11.5034 26.5468 11.5123 26.5468C11.5212 26.5468 11.5301 26.5468 11.5301 26.538C11.5301 26.5293 11.5212 26.5293 11.5034 26.5293C11.4588 26.5293 11.3876 26.5293 11.3787 26.5293C11.3252 26.5293 11.2272 26.5293 11.2005 26.5293C11.1827 26.5293 11.1738 26.5293 11.1738 26.538C11.1738 26.5468 11.1738 26.5468 11.1827 26.5468C11.1916 26.5468 11.2183 26.5468 11.2361 26.5555C11.2807 26.5643 11.3074 26.5993 11.3341 26.643L11.539 26.9755L11.3074 27.2993C11.2628 27.3605 11.245 27.378 11.2094 27.3868C11.1916 27.3955 11.1738 27.3955 11.1649 27.3955C11.1559 27.3955 11.147 27.4043 11.147 27.4043C11.147 27.413 11.1559 27.413 11.1649 27.413H11.1827C11.2005 27.413 11.2628 27.413 11.2807 27.413C11.3074 27.413 11.3876 27.413 11.3965 27.413H11.4143C11.4321 27.413 11.441 27.413 11.441 27.4043C11.441 27.3955 11.4321 27.3955 11.4232 27.3955C11.4143 27.3955 11.4054 27.3955 11.3965 27.3955C11.3876 27.3955 11.3697 27.3868 11.3697 27.378C11.3697 27.3605 11.3787 27.3518 11.3876 27.3255L11.5657 27.0455C11.6192 27.133 11.6905 27.2468 11.7528 27.3605C11.7617 27.378 11.7528 27.3868 11.7528 27.3868C11.7439 27.3868 11.735 27.3955 11.735 27.3955C11.735 27.4043 11.7439 27.413 11.7795 27.413C11.8686 27.413 11.9666 27.413 11.9933 27.413H12.029C12.0468 27.413 12.0557 27.413 12.0557 27.4043C12.0557 27.3955 12.0468 27.3955 12.0379 27.3955C12.029 27.3955 12.0112 27.3955 11.9933 27.3868C11.9577 27.378 11.9399 27.3605 11.9221 27.3343C11.8953 27.2993 11.6994 26.9755 11.6637 26.923L11.8419 26.6605Z" fill="white"/>
<path d="M13.8017 27.2302C13.8107 27.2302 13.8107 27.2302 13.8107 27.239L13.8641 27.3877C13.873 27.4052 13.8641 27.414 13.8552 27.414C13.8463 27.414 13.8374 27.414 13.8374 27.4227C13.8374 27.4315 13.8552 27.4315 13.873 27.4315C13.971 27.4315 14.0512 27.4315 14.0957 27.4315C14.1403 27.4315 14.1492 27.4315 14.1492 27.4227C14.1492 27.414 14.1403 27.414 14.1314 27.414C14.1135 27.414 14.0957 27.414 14.0779 27.414C14.0512 27.4052 14.0156 27.3965 13.971 27.2827C13.8908 27.1077 13.7038 26.6265 13.677 26.5565C13.6681 26.5302 13.6592 26.5215 13.6414 26.5215C13.6325 26.5215 13.6236 26.539 13.6058 26.574L13.3029 27.309C13.2761 27.3702 13.2583 27.4052 13.2049 27.414C13.196 27.414 13.1782 27.414 13.1692 27.414C13.1603 27.414 13.1514 27.414 13.1514 27.4227C13.1514 27.4315 13.1603 27.4315 13.1782 27.4315C13.2405 27.4315 13.3029 27.4315 13.3207 27.4315C13.3563 27.4315 13.4098 27.4315 13.4454 27.4315C13.4632 27.4315 13.4632 27.4315 13.4632 27.4227C13.4632 27.414 13.4632 27.414 13.4454 27.414H13.4276C13.392 27.414 13.383 27.3965 13.383 27.379C13.383 27.3702 13.392 27.3352 13.4009 27.309L13.4276 27.2477C13.4276 27.239 13.4365 27.239 13.4365 27.239H13.8017V27.2302ZM13.481 27.169C13.4721 27.169 13.4721 27.169 13.4721 27.1602L13.6236 26.7665C13.6236 26.7665 13.6236 26.7577 13.6325 26.7577C13.6325 26.7577 13.6325 26.7665 13.6414 26.7665L13.7928 27.1602C13.7928 27.1602 13.7928 27.169 13.7839 27.169H13.481Z" fill="white"/>
<path d="M10.6749 27.2302C10.6838 27.2302 10.6838 27.2302 10.6838 27.239L10.7373 27.3877C10.7462 27.4052 10.7373 27.414 10.7284 27.414C10.7195 27.414 10.7106 27.414 10.7106 27.4227C10.7106 27.4315 10.7284 27.4315 10.7462 27.4315C10.8442 27.4315 10.9333 27.4315 10.9689 27.4315C11.0134 27.4315 11.0224 27.4315 11.0224 27.4227C11.0224 27.414 11.0134 27.414 11.0045 27.414C10.9867 27.414 10.9689 27.414 10.9511 27.414C10.9244 27.4052 10.8887 27.3965 10.8442 27.2827C10.764 27.1077 10.5769 26.6265 10.5413 26.5565C10.5324 26.5302 10.5235 26.5215 10.5146 26.5215C10.5057 26.5215 10.4967 26.539 10.4789 26.574L10.176 27.309C10.1493 27.3702 10.1315 27.4052 10.078 27.414C10.0691 27.414 10.0513 27.414 10.0424 27.414C10.0335 27.414 10.0246 27.414 10.0246 27.4227C10.0246 27.4315 10.0335 27.4315 10.0513 27.4315C10.1137 27.4315 10.176 27.4315 10.1939 27.4315C10.2295 27.4315 10.2829 27.4315 10.3186 27.4315C10.3364 27.4315 10.3364 27.4315 10.3364 27.4227C10.3364 27.414 10.3364 27.414 10.3186 27.414H10.3008C10.2651 27.414 10.2562 27.3965 10.2562 27.379C10.2562 27.3702 10.2651 27.3352 10.274 27.309L10.3008 27.2477C10.3008 27.239 10.3097 27.239 10.3097 27.239H10.6749V27.2302ZM10.3453 27.169C10.3453 27.169 10.3364 27.169 10.3453 27.1602L10.4967 26.7665L10.5057 26.7577L10.5146 26.7665L10.666 27.1602C10.666 27.169 10.666 27.169 10.6571 27.169H10.3453Z" fill="white"/>
<path d="M7.18274 27.2292C7.18274 27.2292 7.19165 27.2292 7.19165 27.238L7.2451 27.3867C7.25401 27.4042 7.2451 27.413 7.23619 27.413C7.22728 27.413 7.21837 27.413 7.21837 27.4217C7.21837 27.4305 7.23619 27.4305 7.25401 27.4305C7.352 27.4305 7.44109 27.4305 7.47672 27.4305C7.52126 27.4305 7.53017 27.4305 7.53017 27.4217C7.53017 27.413 7.52126 27.413 7.51235 27.413C7.49454 27.413 7.47672 27.413 7.4589 27.413C7.43218 27.4042 7.39654 27.3955 7.352 27.2817C7.27182 27.1067 7.08474 26.6255 7.05802 26.5555C7.05802 26.5292 7.05802 26.5117 7.0402 26.5117C7.03129 26.5117 7.02239 26.5292 7.00457 26.5642L6.71059 27.2992C6.68386 27.3605 6.66605 27.3955 6.61259 27.4042C6.60369 27.4042 6.58587 27.4042 6.57696 27.4042C6.56805 27.4042 6.55914 27.4042 6.55914 27.413C6.55914 27.4217 6.56805 27.4217 6.58587 27.4217C6.64823 27.4217 6.71059 27.4217 6.7284 27.4217C6.76404 27.4217 6.81749 27.4217 6.85312 27.4217C6.86203 27.4217 6.87094 27.4217 6.87094 27.413C6.87094 27.4042 6.87094 27.4042 6.85312 27.4042H6.8264C6.79076 27.4042 6.78186 27.3867 6.78186 27.3692C6.78186 27.3605 6.79076 27.3255 6.79967 27.2992L6.8264 27.238C6.8264 27.2292 6.83531 27.2292 6.83531 27.2292H7.18274ZM6.86203 27.168C6.85312 27.168 6.85312 27.168 6.85312 27.1592L7.00457 26.7655L7.01348 26.7567C7.01348 26.7567 7.01348 26.7655 7.02239 26.7655L7.17383 27.1592C7.17383 27.168 7.17383 27.168 7.16492 27.168H6.86203Z" fill="white"/>
<path d="M18.4252 18.0864L18.4163 17.9114H18.5944C18.835 17.9114 18.9597 17.6839 19.022 17.4126C18.0777 17.4039 14.7103 17.4214 14.7103 17.4214V20.8339C14.9954 20.6326 15.2627 20.4576 15.619 20.3526V19.7576V19.6001H15.7793H15.9753C15.9932 18.7776 16.198 18.1739 16.59 17.7801L16.7058 17.6664L16.8216 17.7801C17.2136 18.1739 17.4096 18.7689 17.4363 19.6001H17.6412H17.8016V19.7576V20.3964C18.1846 20.5539 18.443 20.7901 18.6479 21.0439C18.9686 20.4051 19.2002 19.6701 19.2804 18.8214C19.2626 18.8214 19.2448 18.8301 19.2269 18.8301C18.8439 18.8301 18.4519 18.5764 18.4252 18.0864Z" fill="white"/>
<path d="M16.688 20.5195C15.6635 20.5195 15.2716 20.7995 14.7103 21.2195V24.4833C14.7103 24.4833 17.1334 23.6608 18.4608 21.3595C18.149 20.922 17.7036 20.5195 16.688 20.5195ZM17.5254 21.8408L17.2225 21.4995L16.7058 21.9545L16.9196 22.1908C16.9196 22.1908 17.1423 22.0858 17.3294 22.3133C17.1869 22.4358 16.9285 22.6545 16.786 22.777C16.59 22.5583 16.7236 22.357 16.7236 22.357L16.5098 22.1208L15.8684 22.6808L15.6635 22.4445L16.3139 21.902L16.0822 21.6395C16.0822 21.6395 15.9932 21.7183 15.8684 21.8233C15.6814 21.6133 15.5388 21.3333 15.6724 20.9833C16.0466 20.8958 16.3049 21.0795 16.492 21.2895C16.3673 21.4033 16.2782 21.4733 16.2782 21.4733L16.5188 21.7445L17.0533 21.307L16.7504 20.957C17.0265 20.922 17.2671 21.0183 17.4096 21.1758C17.5254 21.3333 17.5967 21.5783 17.5254 21.8408Z" fill="white"/>
<path d="M19.2627 17.4121C19.2627 17.4121 19.236 17.4121 19.1915 17.4121C19.1113 17.8059 18.9242 18.0771 18.5946 18.0771C18.6213 18.4621 18.9242 18.6634 19.2093 18.6634C19.236 18.6634 19.2538 18.6546 19.2806 18.6546C19.2984 18.2609 19.3073 17.8496 19.2627 17.4121Z" fill="white"/>
<path d="M10.2383 17.3867C9.99773 17.3867 9.83738 17.3867 9.83738 17.3955C9.77502 18.078 9.80174 18.6992 9.89974 19.268C10.1492 18.8655 10.3986 18.463 10.3808 18.183C10.3719 17.8855 10.3006 17.623 10.2383 17.3867Z" fill="white"/>
<path d="M10.4076 17.3867C10.47 17.623 10.5413 17.8855 10.5502 18.1742C10.5591 18.5067 10.3096 18.918 10.0424 19.3555C10.0068 19.408 9.98003 19.4517 9.95331 19.5042C10.7194 23.2317 14.3897 24.4742 14.3897 24.4742V17.3955C14.3987 17.3955 11.637 17.3867 10.4076 17.3867ZM13.1604 21.8142C12.9822 21.8492 12.6882 21.8755 12.4922 21.8755C12.2962 21.8755 12.0112 21.858 11.8241 21.8142C11.8419 21.7355 11.8686 21.6305 11.8954 21.5255C11.7617 21.5167 11.6192 21.4642 11.5034 21.4205C11.5568 21.228 11.6459 21.0355 11.7172 20.773C11.9666 20.8255 12.2072 20.8517 12.4833 20.8517C12.7595 20.8517 13 20.8342 13.2495 20.773C13.3207 21.0355 13.4098 21.228 13.4722 21.4205C13.3653 21.4555 13.2227 21.508 13.0802 21.5255C13.1158 21.6305 13.1426 21.7355 13.1604 21.8142ZM11.6637 20.2655C11.7974 20.213 12.3408 20.1955 12.5011 20.1955C12.6615 20.1955 13.196 20.2217 13.3385 20.2655C13.3564 20.3355 13.3564 20.4317 13.3474 20.5105C13.1426 20.5717 12.7773 20.598 12.51 20.598C12.2339 20.598 11.8775 20.563 11.6726 20.5105C11.6459 20.4317 11.6459 20.3355 11.6637 20.2655ZM13.7038 18.8742C13.4989 19.3467 13.3029 19.8455 13.2405 19.9942C13.1336 19.9767 13.0178 19.968 12.902 19.9592C13.0357 19.5392 13.2049 18.9442 13.3474 18.568C13.4365 18.3055 13.8909 18.428 13.7038 18.8742ZM12.5011 18.1655C12.5368 17.9467 13.1693 17.903 13.0535 18.3842C12.9377 18.8742 12.7862 19.4517 12.6704 19.9417C12.617 19.9417 12.5635 19.9417 12.51 19.9417C12.4566 19.9417 12.4031 19.9417 12.3497 19.9417C12.2339 19.4517 12.0824 18.8742 11.9666 18.3842C11.833 17.903 12.4655 17.9467 12.5011 18.1655ZM11.6548 18.568C11.7974 18.9442 11.9577 19.5392 12.1003 19.9592C11.9844 19.968 11.8686 19.9767 11.7617 19.9942C11.6994 19.8455 11.5034 19.3555 11.2985 18.8742C11.1025 18.428 11.5568 18.3055 11.6548 18.568Z" fill="white"/>
<path d="M19.4408 12.3545H14.55H9.65925H9.48108V12.5382V15.9682C9.52562 15.9945 9.57016 16.0295 9.61471 16.0645V12.5032H19.521V15.8107C19.5566 15.8457 19.5922 15.8895 19.6279 15.9507V12.5295V12.3457H19.4408V12.3545Z" fill="white"/>
<path d="M9.98 15.6354C10.2384 15.8454 10.3363 15.9941 10.2562 16.6941C10.2473 16.7816 10.2918 16.9479 10.3453 17.1229H19.0667C19.0756 17.0266 19.0845 16.9391 19.0845 16.8604C19.0934 16.4754 19.0221 16.1691 18.8974 16.0466C18.8529 16.0029 18.8083 15.9854 18.7282 15.9854H18.7103L18.3629 16.0204L18.55 15.7316C18.7282 15.4429 18.9954 15.2766 19.2716 15.2591V12.7129H9.85529V15.5566C9.89092 15.5741 9.91764 15.5916 9.95328 15.6179L9.98 15.6354ZM15.5211 15.3029V15.1279L15.0935 15.1191C15.1915 14.6729 16.0734 14.1129 16.4743 13.9816C16.4565 13.5004 17.0979 13.3429 17.6146 13.3254C18.256 13.3079 18.4074 13.9904 18.4074 14.2004C18.4074 14.4804 18.3362 15.1016 17.9798 15.2941C17.4631 15.5741 17.0177 15.1891 17.0177 14.8391C17.0177 14.4541 17.285 14.2354 17.7571 14.2879C18.2204 14.3404 18.1847 14.0779 17.8373 13.9904C17.668 13.9466 16.9286 13.9116 16.6792 14.4541C16.5367 14.4629 16.3852 14.4016 16.2961 14.3141C16.1981 14.4366 16.0467 14.5154 15.8418 14.5766C16.02 14.9354 16.3852 14.8741 16.6079 14.7079C16.599 14.7604 16.599 14.8041 16.599 14.8566C16.599 15.7404 17.5522 15.9591 18.1402 15.6266C18.0422 15.9154 18.0867 16.2741 18.1313 16.5191H15.8151C15.8507 16.2741 16.1625 15.9941 16.4209 15.8191L16.216 15.5041C15.9665 15.6091 15.726 15.7141 15.4587 15.7841C14.8173 15.9329 14.853 15.4779 15.5211 15.3029ZM13.8908 16.0204C13.8018 16.1429 13.2494 16.3091 13.1158 16.2304C12.8842 16.0904 12.7684 15.8016 12.8218 15.6704C12.8842 15.5041 13.49 15.3379 13.6859 15.3991C13.8819 15.4604 13.9621 15.9066 13.8908 16.0204ZM10.6749 14.6116C11.1827 14.3229 11.4499 14.1129 11.7172 13.7016C11.5212 13.6054 11.2806 13.4304 11.1025 13.1854C12.0735 13.4566 12.5635 13.5966 13.7127 13.1941C13.5256 13.4829 13.2494 13.6579 13.0178 13.8066C13.2762 14.2266 13.5345 14.7079 13.6236 15.0929C13.2851 15.0666 12.8931 15.1454 12.6169 15.3991C12.1893 15.4166 11.6459 15.5479 11.3519 14.5941C11.2005 14.6729 11.0401 14.7691 11.0401 14.7691C11.2183 15.3904 11.539 15.8191 12.3942 15.7229C12.4388 15.9241 12.4744 16.0379 12.5813 16.2041C12.2339 16.4054 11.3519 16.9129 10.6838 16.3266V14.6116H10.6749Z" fill="white"/>
<path d="M9.85529 15.7578V17.1316H10.1668C10.1134 16.9478 10.0689 16.7903 10.0867 16.6853C10.1579 15.9853 10.0511 15.9153 9.85529 15.7578Z" fill="white"/>
<path d="M19.2622 17.132V15.4258C19.0574 15.4433 18.8527 15.5658 18.6925 15.8195C18.7103 15.8195 18.7281 15.8195 18.7459 15.8195C19.1286 15.8195 19.2622 16.3358 19.2533 16.8695C19.2533 16.957 19.2444 17.0445 19.2444 17.132H19.2622Z" fill="white"/>
<path d="M12.1447 14.7963C12.3051 14.875 12.51 14.7788 12.7149 14.805C12.6703 14.7175 12.6258 14.6563 12.6525 14.525C12.706 14.28 12.5011 14.2188 12.412 14.2188C12.1715 14.2363 12.0467 14.28 11.7973 14.2188C11.9577 14.385 11.922 14.6825 12.1447 14.7963Z" fill="white"/>
<path d="M159.171 19.2849V15.0587C159.171 14.3937 159.117 14.2274 158.939 14.0174C158.796 13.8512 158.529 13.7549 158.235 13.7549C157.727 13.7549 156.935 14.1574 156.471 14.6299V19.2849H155.5V14.4724C155.5 13.5799 155.26 13.1512 155.26 13.1512L156.231 12.8887C156.231 12.8887 156.462 13.3524 156.462 13.8687C157.131 13.2124 157.79 12.9062 158.467 12.9062C159.153 12.9062 159.767 13.2649 160.026 13.8249C160.133 14.0524 160.177 14.3062 160.177 14.5512V19.2937H159.171V19.2849Z" fill="white"/>
<path d="M136.392 19.2849V15.0587C136.392 14.3937 136.338 14.2274 136.16 14.0174C136.018 13.8512 135.75 13.7549 135.456 13.7549C134.949 13.7549 134.156 14.1574 133.693 14.6299V19.2849H132.721V14.4724C132.721 13.5799 132.481 13.1512 132.481 13.1512L133.452 12.8887C133.452 12.8887 133.684 13.3524 133.684 13.8687C134.352 13.2124 135.011 12.9062 135.688 12.9062C136.383 12.9062 136.989 13.2649 137.247 13.8249C137.345 14.0524 137.398 14.3062 137.398 14.5512V19.2937H136.392V19.2849Z" fill="white"/>
<path d="M119.554 19.3549H118.575L116.285 13.0987L117.31 12.8887L118.788 17.1937C118.966 17.7099 119.091 18.2612 119.091 18.2612H119.118C119.118 18.2612 119.225 17.7712 119.421 17.2112L120.882 13.0549H121.942L119.554 19.3549Z" fill="white"/>
<path d="M146.298 19.2859V14.6746C146.298 14.0709 146.022 13.7559 145.478 13.7559C144.908 13.7559 144.454 14.1234 143.795 14.7184V19.2859H142.788V14.8496C142.788 14.4734 142.752 14.2196 142.61 14.0446C142.458 13.8696 142.253 13.7909 141.959 13.7909C141.469 13.7909 140.997 14.0271 140.338 14.6221V19.2859H139.376V14.4471C139.376 13.5459 139.144 13.1171 139.144 13.1171L140.115 12.8896C140.115 12.8896 140.347 13.3796 140.347 13.8171C140.766 13.3534 141.55 12.8809 142.2 12.8809C142.823 12.8809 143.447 13.2571 143.679 13.9221C144.293 13.2834 145.068 12.8809 145.719 12.8809C146.663 12.8809 147.313 13.5809 147.313 14.5784V19.2946H146.298V19.2859Z" fill="white"/>
<path d="M150.066 16.3273V16.4761C150.066 17.0623 150.146 17.5173 150.36 17.8411C150.717 18.3836 151.304 18.6023 151.946 18.6023C152.561 18.6023 153.059 18.4098 153.505 18.0161L153.888 18.6461C153.327 19.1448 152.561 19.4248 151.741 19.4248C149.977 19.4248 148.917 18.1736 148.917 16.0998C148.917 15.0498 149.149 14.3673 149.683 13.7373C150.191 13.1511 150.823 12.8711 151.59 12.8711C152.276 12.8711 152.881 13.1073 153.309 13.5448C153.861 14.0961 154.039 14.6823 154.039 16.1786V16.3186H150.066V16.3273ZM152.685 14.1923C152.471 13.8511 152.026 13.6411 151.536 13.6411C150.627 13.6411 150.12 14.2886 150.066 15.5836H152.979C152.961 14.9098 152.872 14.4986 152.685 14.1923Z" fill="white"/>
<path d="M123.599 16.3273V16.4761C123.599 17.0623 123.679 17.5173 123.893 17.8411C124.249 18.3836 124.837 18.6023 125.479 18.6023C126.094 18.6023 126.592 18.4098 127.038 18.0161L127.421 18.6461C126.86 19.1448 126.094 19.4248 125.274 19.4248C123.51 19.4248 122.45 18.1736 122.45 16.0998C122.45 15.0498 122.682 14.3673 123.216 13.7373C123.724 13.1511 124.356 12.8711 125.122 12.8711C125.808 12.8711 126.414 13.1073 126.851 13.5448C127.403 14.0961 127.581 14.6823 127.581 16.1786V16.3186H123.599V16.3273ZM126.218 14.1923C126.004 13.8511 125.55 13.6411 125.069 13.6411C124.16 13.6411 123.653 14.2886 123.599 15.5836H126.512C126.494 14.9098 126.405 14.4986 126.218 14.1923Z" fill="white"/>
<path d="M131.741 13.9823C131.679 13.956 131.563 13.9298 131.465 13.9298C131.082 13.9298 130.699 14.096 130.405 14.3848C130.111 14.6735 130.031 14.8573 130.031 15.3735V19.2848H129.033V14.4723C129.033 13.5535 128.819 13.1423 128.819 13.1423L129.817 12.8798C129.817 12.8798 130.058 13.3698 130.022 13.8948C130.485 13.256 131.153 12.8535 131.813 12.8535C131.982 12.8535 132.16 12.9148 132.16 12.9148L131.741 13.9823Z" fill="white"/>
<path d="M113.167 19.451C111.421 19.451 110.423 18.1823 110.423 16.126C110.423 14.096 111.457 12.8535 113.132 12.8535C114.192 12.8535 114.887 13.326 115.314 13.9473C115.706 14.516 115.902 15.251 115.902 16.266C115.902 18.3485 114.762 19.451 113.167 19.451ZM114.468 14.4548C114.201 13.9035 113.639 13.6498 113.114 13.6498C112.552 13.6498 112.027 13.9123 111.813 14.3235C111.608 14.7085 111.51 15.216 111.51 15.951C111.51 16.826 111.662 17.6048 111.911 17.9985C112.143 18.3748 112.65 18.6285 113.203 18.6285C113.871 18.6285 114.37 18.2873 114.584 17.6835C114.726 17.2985 114.78 16.9485 114.78 16.3273C114.762 15.461 114.673 14.8748 114.468 14.4548Z" fill="white"/>
<path d="M83.9295 19.6167C83.5375 19.4505 83.1722 19.1617 83.0119 18.838C82.8872 18.9605 82.7446 19.0917 82.6199 19.1792C82.2992 19.4067 81.836 19.5292 81.3015 19.5292C79.8494 19.5292 79.0565 18.803 79.0565 17.5255C79.0565 16.0205 80.1166 15.3205 82.2012 15.3205C82.3259 15.3205 82.4417 15.3205 82.5843 15.3292V15.0667C82.5843 14.3492 82.4417 14.113 81.8182 14.113C81.2658 14.113 80.6333 14.3755 79.9296 14.8392L79.1991 13.6317C79.5465 13.4217 79.7959 13.2905 80.2592 13.1067C80.9006 12.8442 81.444 12.7305 82.0498 12.7305C83.1455 12.7305 83.9027 13.133 84.1611 13.8505C84.2502 14.113 84.2858 14.3142 84.2769 15.0055L84.2413 17.1667C84.2324 17.8667 84.2769 18.173 84.856 18.593L83.9295 19.6167ZM82.4685 16.4755C81.2836 16.4755 80.8739 16.6855 80.8739 17.4555C80.8739 17.9542 81.1946 18.2955 81.6311 18.2955C81.9518 18.2955 82.2725 18.1292 82.5219 17.858L82.5487 16.4755H82.4685Z" fill="white"/>
<path d="M57.4711 16.598V16.6505C57.4711 17.6392 57.97 18.208 58.852 18.208C59.4399 18.208 59.9922 17.998 60.5089 17.5692L61.1771 18.5755C60.4198 19.1792 59.6359 19.468 58.7094 19.468C56.8297 19.468 55.6182 18.1642 55.6182 16.143C55.6182 14.988 55.8587 14.2267 56.4377 13.5967C56.9723 13.0105 57.6226 12.7305 58.4956 12.7305C59.2528 12.7305 59.9655 12.9842 60.3842 13.4042C60.9811 14.008 61.2573 14.8742 61.2573 16.213V16.598H57.4711ZM59.4756 15.2942C59.4756 14.8217 59.4221 14.568 59.2707 14.3317C59.1014 14.078 58.8609 13.9555 58.5134 13.9555C57.8631 13.9555 57.4889 14.4542 57.4889 15.3467V15.373H59.4666V15.2942H59.4756Z" fill="white"/>
<path d="M50.861 16.598V16.6505C50.861 17.6392 51.3599 18.208 52.2418 18.208C52.8298 18.208 53.3821 17.998 53.8988 17.5692L54.567 18.5755C53.8097 19.1792 53.0169 19.468 52.0993 19.468C50.2196 19.468 49.0081 18.1642 49.0081 16.143C49.0081 14.988 49.2486 14.2267 49.8276 13.5967C50.3622 13.0105 51.0125 12.7305 51.8855 12.7305C52.6427 12.7305 53.3554 12.9842 53.7741 13.4042C54.371 14.008 54.6471 14.8742 54.6471 16.213V16.598H50.861ZM52.8654 15.2942C52.8654 14.8217 52.812 14.568 52.6605 14.3317C52.4913 14.078 52.2508 13.9555 51.9033 13.9555C51.253 13.9555 50.8788 14.4542 50.8788 15.3467V15.373H52.8565V15.2942H52.8654Z" fill="white"/>
<path d="M89.6577 19.2841V15.1103C89.6577 14.3841 89.5241 14.1653 89.0787 14.1653C88.7312 14.1653 88.2858 14.3928 87.8938 14.7428V19.2841H86.1834V14.6291C86.1834 14.0778 86.1032 13.5528 85.9518 13.1241L87.4751 12.6953C87.6266 12.9578 87.7157 13.2378 87.7157 13.5003C87.974 13.3253 88.1878 13.1766 88.4729 13.0278C88.8203 12.8528 89.2657 12.7478 89.6488 12.7478C90.3793 12.7478 91.0118 13.1241 91.2167 13.6753C91.3058 13.9116 91.3414 14.1916 91.3414 14.5941V19.2841H89.6577Z" fill="white"/>
<path d="M66.0945 19.2841V15.1103C66.0945 14.3841 65.9698 14.1653 65.5154 14.1653C65.168 14.1653 64.7226 14.3928 64.3306 14.7428V19.2841H62.6202V14.6291C62.6202 14.0778 62.54 13.5528 62.3885 13.1241L63.9119 12.6953C64.0633 12.9578 64.1524 13.2378 64.1524 13.5003C64.4108 13.3253 64.6246 13.1766 64.9097 13.0278C65.2571 12.8528 65.7025 12.7478 66.0856 12.7478C66.8161 12.7478 67.4486 13.1241 67.6535 13.6753C67.7426 13.9116 67.7782 14.1916 67.7782 14.5941V19.2841H66.0945Z" fill="white"/>
<path d="M46.6293 19.4591C46.4155 19.3103 46.2374 19.1003 46.1216 18.8291C45.7029 19.2316 45.0882 19.4416 44.4022 19.4416C43.4846 19.4416 42.6918 19.0128 42.4691 18.4003C42.3711 18.1116 42.3265 17.7703 42.3265 17.1228V13.0103L44.0102 12.6953V16.8253C44.0102 17.4028 44.0637 17.7003 44.1528 17.8753C44.2419 18.0503 44.5002 18.1728 44.7497 18.1728C45.1684 18.1728 45.685 17.8753 45.8098 17.5603V13.0453L47.4489 12.7041V17.6041C47.4489 18.0328 47.5915 18.4703 47.8409 18.7678L46.6293 19.4591Z" fill="white"/>
<path d="M71.6625 19.4863C70.8608 19.4863 69.9788 19.2325 69.0167 18.7513L69.6314 17.5263C70.157 17.8413 71.0657 18.2525 71.8051 18.2525C72.2861 18.2525 72.6692 17.9375 72.6692 17.5263C72.6692 17.0888 72.3485 16.8612 71.6625 16.7387L70.8964 16.5988C70.4599 16.52 69.9254 16.2225 69.6938 15.9425C69.4622 15.6713 69.3196 15.1988 69.3196 14.7875C69.3196 13.5362 70.3263 12.6875 71.8496 12.6875C72.9008 12.6875 73.5868 13.0025 74.1836 13.2912L73.6224 14.42C72.9721 14.0962 72.4999 13.9563 72.01 13.9563C71.5111 13.9563 71.1815 14.21 71.1815 14.5863C71.1815 14.91 71.3953 15.085 72.0011 15.2338L72.7939 15.435C73.5957 15.6363 73.8629 15.8725 74.0946 16.1613C74.3351 16.4588 74.4509 16.8263 74.4509 17.255C74.4598 18.585 73.3373 19.4863 71.6625 19.4863Z" fill="white"/>
<path d="M164.471 13.7816H163.144V17.8066C163.144 18.4978 163.331 18.7341 163.963 18.7341C164.24 18.7341 164.409 18.6991 164.587 18.6116L164.73 19.2416C164.409 19.4078 164.053 19.4953 163.607 19.4953C163.278 19.4953 163.019 19.4341 162.779 19.3203C162.333 19.1103 162.164 18.7078 162.164 18.0778V13.7903H161.335V13.0378H162.164C162.164 12.4341 162.262 11.4541 162.262 11.4541L163.313 11.2266C163.313 11.2266 163.188 12.2066 163.188 13.0291H164.783L164.471 13.7816Z" fill="white"/>
<path d="M106.557 19.4254C105.461 19.4254 104.526 19.0491 103.858 18.3491C103.118 17.5616 102.771 16.4941 102.771 15.0154C102.771 13.3704 103.216 12.2066 104.125 11.4016C104.749 10.8504 105.506 10.5879 106.415 10.5879C107.35 10.5879 108.152 10.8766 108.811 11.4366L108.339 12.0754C107.626 11.6029 107.109 11.4104 106.432 11.4104C105.408 11.4104 104.606 11.8741 104.25 12.8629C104.018 13.5016 103.902 14.2279 103.902 15.0504C103.902 16.1791 104.116 17.0891 104.517 17.6579C104.918 18.2266 105.809 18.5766 106.637 18.5766C107.19 18.5766 107.662 18.4629 108.027 18.2354V15.6104H106.263L106.058 14.7616H109.007V18.7779C108.392 19.1716 107.448 19.4254 106.557 19.4254Z" fill="white"/>
<path d="M41.2934 20.7645C41.2934 20.7645 41.035 20.9133 40.5005 20.9133C39.8146 20.9133 39.1999 20.5108 38.8703 20.3008C38.4516 20.0295 37.7567 19.6358 37.0707 19.4258C35.7434 19.4258 34.8703 19.067 34.1933 18.2008C33.5163 17.3433 33.1688 16.2408 33.1688 14.9633C33.1688 13.082 33.8993 11.5683 35.1732 10.8858C35.6988 10.6145 36.3492 10.457 37.0084 10.457C39.3691 10.457 40.8301 12.1545 40.8301 14.8845C40.8301 16.7745 40.1442 18.192 39.0841 18.8833C39.3246 18.9708 39.672 19.1983 39.8769 19.3208C40.1976 19.5045 40.5807 19.6795 40.9727 19.6795C41.3557 19.6795 41.7655 19.6183 41.7655 19.6183L41.2934 20.7645ZM38.5496 12.9158C38.407 12.4783 37.9349 11.8133 36.9906 11.8133C36.3937 11.8133 35.8681 12.1108 35.6098 12.5745C35.3069 13.1345 35.1643 13.9045 35.1643 14.9545C35.1643 16.4595 35.4227 17.4045 35.9572 17.7808C36.2423 17.982 36.5986 18.0783 37.0173 18.0783C38.2556 18.0783 38.7812 17.1508 38.7812 14.9283C38.7812 14.0445 38.701 13.4058 38.5496 12.9158Z" fill="white"/>
<path d="M97.2209 19.2848C97.1674 19.1885 97.1407 19.0835 97.1229 18.9085C96.7042 19.276 96.2053 19.451 95.6174 19.451C93.9604 19.451 92.9092 18.1823 92.9092 16.1873C92.9092 14.1835 94.0406 12.801 95.7065 12.801C96.1786 12.801 96.5528 12.9148 96.8646 13.1685C96.8378 13.0285 96.8111 12.591 96.8111 12.2148V10.0098L98.5126 10.2723V16.9485C98.5126 18.5323 98.6373 19.0398 98.7532 19.2935H97.2209V19.2848ZM96.8378 14.5598C96.5171 14.2798 96.2142 14.1485 95.9024 14.1485C95.1363 14.1485 94.8067 14.7785 94.8067 16.2048C94.8067 17.5873 95.1007 18.0335 95.9915 18.0335C96.3122 18.0335 96.6686 17.8148 96.8378 17.6223V14.5598Z" fill="white"/>
<path d="M77.4974 19.4334C76.7669 19.4334 76.1789 19.0922 75.974 18.5584C75.8493 18.2347 75.8226 18.0334 75.8226 17.1147V12.3197C75.8226 11.4797 75.7959 10.9634 75.7335 10.3859L77.4796 9.99219C77.542 10.3422 77.5687 10.7534 77.5687 11.6634V16.6684C77.5687 17.7709 77.5776 17.9197 77.6845 18.0947C77.7468 18.2084 77.8894 18.2697 78.0319 18.2697C78.0943 18.2697 78.1388 18.2697 78.219 18.2434L78.513 19.2497C78.219 19.3722 77.8627 19.4334 77.4974 19.4334Z" fill="white"/>
<path d="M15.8952 10.3073C15.8328 10.3073 15.7705 10.3335 15.7348 10.386C15.6636 10.3773 15.5923 10.3598 15.5121 10.351V9.95727C15.5834 9.93102 15.6368 9.86102 15.6368 9.77352C15.6368 9.66852 15.5477 9.57227 15.4408 9.57227C15.3339 9.57227 15.2449 9.65977 15.2449 9.77352C15.2449 9.84352 15.2894 9.91352 15.3518 9.94852V10.3248C15.2805 10.316 15.2181 10.3073 15.138 10.3073C15.1112 10.2373 15.04 10.1935 14.9598 10.1935C14.8529 10.1935 14.7638 10.281 14.7638 10.386C14.7638 10.491 14.8529 10.5785 14.9598 10.5785C15.0311 10.5785 15.0934 10.5435 15.129 10.491C15.2092 10.4998 15.2805 10.5085 15.3518 10.5173L15.3428 11.086C15.2805 11.121 15.2359 11.1823 15.2359 11.261C15.2359 11.366 15.325 11.4623 15.4319 11.4623C15.5388 11.4623 15.6368 11.3748 15.6368 11.261C15.6368 11.1823 15.5834 11.1123 15.521 11.086L15.5299 10.5348C15.5923 10.5435 15.6546 10.5523 15.717 10.561C15.7437 10.6398 15.815 10.6923 15.9041 10.6923C16.011 10.6923 16.1001 10.6048 16.1001 10.4998C16.0912 10.3948 16.0021 10.3073 15.8952 10.3073Z" fill="white"/>
<path d="M14.158 10.1935C14.0779 10.1935 14.0066 10.2373 13.971 10.3073C13.8997 10.316 13.8284 10.316 13.7572 10.3248V9.94852C13.8195 9.91352 13.8641 9.85227 13.8641 9.77352C13.8641 9.66852 13.775 9.57227 13.6681 9.57227C13.5523 9.57227 13.4632 9.65977 13.4632 9.77352C13.4632 9.85227 13.5166 9.92227 13.579 9.95727L13.5879 10.351C13.5166 10.3598 13.4365 10.3685 13.3652 10.386C13.3296 10.3423 13.2761 10.3073 13.2048 10.3073C13.0979 10.3073 13.0089 10.3948 13.0089 10.5085C13.0089 10.6135 13.0979 10.701 13.2048 10.701C13.2939 10.701 13.3652 10.6485 13.3919 10.5698C13.4543 10.561 13.5166 10.5523 13.579 10.5435L13.5879 11.0948C13.5166 11.121 13.4721 11.191 13.4721 11.2698C13.4721 11.3748 13.5612 11.471 13.6681 11.471C13.775 11.471 13.873 11.3835 13.873 11.2698C13.873 11.191 13.8284 11.1298 13.7661 11.0948V10.526C13.8373 10.5173 13.9086 10.5085 13.9888 10.4998C14.0244 10.5523 14.0868 10.5873 14.158 10.5873C14.2649 10.5873 14.3629 10.4998 14.3629 10.3948C14.3629 10.281 14.2649 10.1935 14.158 10.1935Z" fill="white"/>
<path d="M20.9197 6.14281C20.9197 4.91781 20.8751 3.91156 20.8573 3.59656C20.9019 3.60531 20.9553 3.62281 21.0088 3.64031C21.8996 3.94656 22.1045 5.00531 23.9575 3.80656C22.9686 3.92031 22.9152 3.09781 22.4609 3.08031C23.1468 2.69531 23.1914 1.82031 23.1914 1.82031C22.6212 2.27531 21.2849 2.30156 21.0266 2.45031C20.6792 2.65156 20.2516 2.90531 19.9576 3.06281C19.1914 3.47406 19.726 5.71406 19.6458 6.52781C19.2271 5.31156 18.3897 5.49531 17.9532 4.79531C17.6235 5.38156 17.971 6.35281 18.1046 6.63281C17.6235 7.01781 17.7572 7.71781 17.873 7.91031C18.2828 7.62156 18.9153 7.69156 19.1024 8.18156C18.5678 8.50531 17.6681 8.55781 17.0534 7.98031L16.8396 8.21656C17.2761 8.77656 18.354 8.99531 19.1647 8.54031C19.1647 8.67156 19.1291 8.81156 19.0756 8.96906C18.6569 9.18781 18.1135 9.30156 17.4988 9.09156C17.579 9.70406 18.3006 10.1591 18.9865 10.3516C18.7549 10.5266 18.4699 10.5966 18.265 10.5703C18.3986 10.9291 18.4699 11.4016 18.1937 11.7778C17.8552 11.5591 17.6681 11.3316 17.5434 10.4741C17.4097 9.60781 16.7772 8.73281 16.2873 8.55781C16.2605 8.86406 16.2605 8.73281 16.314 8.92531C17.6146 9.86156 16.8841 11.5591 18.2382 12.1716C18.7371 11.6116 18.746 11.4191 18.6658 10.8941C19.1558 10.7628 19.5211 10.3603 19.6547 10.0453C19.1914 10.2641 18.452 9.87906 18.2471 9.58156C19.0578 9.55531 19.8061 8.96031 20.5723 8.17281C21.2582 7.47281 22.1669 7.57781 22.0956 8.12906C22.5678 8.05906 22.7548 7.42906 22.6034 7.01781C23.2983 6.79906 23.8417 6.30031 23.9129 5.51281C22.9776 5.96781 21.8016 5.21531 20.9197 6.14281ZM22.0333 6.79906C22.3985 7.09656 22.2827 7.51656 22.1936 7.61281C21.8729 7.07031 20.8395 7.25406 19.8239 8.38281C19.7527 8.47031 19.6547 8.56656 19.5478 8.66281C19.628 7.31531 18.5055 7.28906 18.1759 7.42906C18.2115 7.04406 18.4609 6.77281 18.5857 6.73781C18.256 6.36156 18.1848 5.88906 18.1491 5.53906C18.7015 5.77531 19.5121 6.40531 19.6458 7.49031L20.0021 7.25406C19.8952 5.35531 19.9219 5.36406 19.9041 4.07781C19.9041 3.89406 19.913 3.47406 20.4921 3.51781C20.5188 3.99906 20.5901 5.26781 20.5634 7.03531H20.7682C20.9553 6.54531 21.6235 5.95906 22.3985 6.01156C22.9241 6.04656 23.1112 6.03781 23.4141 5.90656C23.1735 6.50156 22.2738 6.76406 22.0333 6.79906ZM20.5188 3.18531C20.893 2.92281 21.1335 2.80031 21.3295 2.68656C21.6502 2.69531 22.2114 2.66031 22.541 2.49406C22.1936 2.91406 22.158 3.06281 21.5878 3.12406C22.3272 3.18531 22.639 3.83281 22.9954 3.93781C21.766 4.31406 21.6413 3.11531 20.5188 3.18531Z" fill="white"/>
<path d="M12.7773 9.15156C12.0913 9.18656 11.4232 10.0616 11.6993 11.0591C11.5924 11.0941 11.2984 11.0941 11.2004 10.8928C11.1292 11.2166 10.4521 11.5928 9.96217 11.5403C10.2294 11.2516 10.4165 10.6041 10.9421 10.2628C11.4766 9.92156 11.7082 9.68531 11.8953 9.09906C11.6459 9.21281 10.372 9.53656 10.0067 9.15156C10.853 9.02906 11.8419 8.56531 12.3318 8.25906L12.1358 8.05781C11.6102 8.35531 10.9065 8.59156 10.5501 8.70531C10.4254 7.67281 11.4232 7.71656 11.5033 7.99656C11.9131 7.51531 11.6281 6.82406 11.3252 6.74531C11.637 5.92281 11.3252 5.41531 11.0579 5.10906C10.9956 5.98406 9.9978 6.12406 9.88199 6.79781C9.84636 6.26406 9.81072 4.82031 9.76618 4.12031C9.70382 2.80781 8.02011 2.34406 7.76177 2.34406C6.66602 2.39656 6.56803 2.25656 6.59475 1.75781C6.03352 2.37906 6.2206 2.93031 6.69275 3.20156C6.63039 3.57781 6.02461 3.86656 5.65045 3.94531C6.5413 4.75906 7.57469 4.27781 8.07357 3.81406C8.1092 3.77906 8.13592 3.75281 8.17156 3.71781C8.34973 4.02406 8.48336 4.59281 8.48336 4.91656C7.64596 4.87281 7.50342 5.50281 7.50342 5.73906C8.56353 5.31031 8.67934 7.30531 8.95551 7.62031C8.68825 7.60281 8.20719 6.98156 7.50342 6.93781C6.6482 6.89406 6.35422 7.34031 6.00679 7.32281C6.06915 7.90906 6.79965 8.24156 7.2718 8.31156C7.03127 8.91531 7.24507 9.32656 7.74395 9.47531C7.74395 8.92406 8.45663 8.74906 9.21385 9.18656C10.1314 9.71156 10.5947 9.75531 11.3341 9.53656C11.2094 9.79906 10.8797 9.82531 10.4789 10.2191C9.90872 10.7703 9.8909 11.4878 9.2584 11.7503C10.0067 12.1003 11.1292 11.6103 11.2895 11.3303C11.6013 11.5228 12.0022 11.4091 12.1091 11.2166C11.6013 10.1141 12.4565 9.46656 12.7951 9.47531C12.7951 9.46656 12.9465 9.14281 12.7773 9.15156ZM8.90206 8.70531C8.5279 8.55656 7.94885 8.46031 7.62814 8.90656C7.44997 8.60031 7.70832 8.15406 7.86867 8.01406C7.04909 8.03156 6.58584 7.78656 6.46113 7.54156C6.76401 7.37531 7.53015 7.10406 8.16265 7.55906C8.59917 7.87406 8.81297 8.02281 9.32966 8.18906C9.51674 8.00531 9.44547 8.09281 9.50783 8.04031C9.08913 7.75156 8.90206 5.55531 8.07357 5.47656C8.18938 5.19656 8.61698 5.22281 8.96442 5.31031C8.99114 4.82031 8.78625 4.00656 8.47445 3.53406C8.95551 3.28906 9.28512 3.55156 9.44547 4.13781C9.62364 4.75906 9.40984 6.30781 9.82854 7.70781L10.0869 7.47156C9.95326 6.65781 10.8708 6.36031 11.0668 5.94906C11.147 6.49156 11.0312 6.74531 10.8708 6.93781C11.2004 6.97281 11.3519 7.29656 11.2984 7.51531C10.5056 7.40156 10.0423 8.18031 10.2205 8.80156C9.62364 8.93281 9.22276 8.83656 8.90206 8.70531ZM6.6482 2.58906C7.2718 2.88656 7.47669 2.33531 8.64371 3.07906C7.86867 3.31531 7.2718 4.26031 6.39877 4.01531C7.02236 3.70906 6.96 3.26281 7.32525 3.03531C7.09363 3.00906 6.6393 2.90406 6.6482 2.58906Z" fill="white"/>
<path d="M16.8128 11.8827C16.6881 11.0952 16.403 8.87266 16.3674 8.13766L16.02 8.15516C16.02 8.27766 16.0378 8.44391 16.0556 8.64516C15.6458 8.52266 15.1024 8.44391 14.5501 8.44391C13.9977 8.44391 13.4543 8.53141 13.0445 8.64516C13.0624 8.45266 13.0802 8.28641 13.0802 8.15516L12.7417 8.12891C12.706 8.87266 12.4209 11.0864 12.2962 11.8739C12.0913 11.9527 11.9577 12.1539 11.9577 12.5127C11.9577 12.5127 13.8285 12.5389 14.559 12.5389C15.2895 12.5389 17.1603 12.5127 17.1603 12.5127C17.1514 12.1539 17.0177 11.9614 16.8128 11.8827ZM14.5501 11.8564C14.2561 12.4164 13.7038 12.3989 13.2138 12.0839C13.0178 11.9614 12.8218 11.8739 12.6347 11.8477C12.7149 11.2964 12.8575 10.2639 12.9555 9.38891C13.579 9.10891 14.3541 9.04766 14.5412 9.75641C14.7282 9.04766 15.5033 9.11766 16.1269 9.38891C16.2249 10.2639 16.3674 11.3052 16.4476 11.8477C16.2694 11.8739 16.0645 11.9614 15.8685 12.0839C15.4053 12.3989 14.853 12.4164 14.5501 11.8564Z" fill="white"/>
<path d="M18.4342 3.255C18.4432 3.08 18.1135 2.94875 18.0245 2.94C17.8819 2.93125 17.7127 3.22 17.5256 3.395C17.3652 2.555 17.4454 2.1875 17.5345 1.81125C17.8997 2.45875 18.3897 2.59875 18.6481 2.56375C17.775 1.88125 17.9265 1.26 17.6592 1.225C17.5078 1.2075 17.4009 1.21625 17.3207 1.21625C17.0178 1.21625 16.9733 1.8025 16.9287 2.065C16.7327 1.70625 16.5367 1.4 16.1982 0.98C15.8775 0.16625 15.4855 0.3675 15.0847 0C15.3964 0.46375 15.147 0.7525 15.8686 1.085C16.0557 1.26 16.2784 1.54 16.4209 1.75875C16.2962 1.91625 16.216 2.00375 16.1002 2.1175C16.0111 2.24875 15.9666 2.75625 15.6904 3.1325C16.1002 2.9575 16.2695 2.70375 16.412 2.4675C17.7216 3.43875 16.6615 5.90625 16.3586 6.44875C16.0735 6.25625 15.6993 6.15125 15.3697 6.09L15.3341 5.97625L15.0312 5.005H15.1737C15.3341 5.005 15.3786 4.9 15.3519 4.8125L16.2517 5.08375L16.6525 5.20625L16.412 4.87375L15.9933 4.305L16.412 3.73625L16.6525 3.40375L16.2517 3.52625L15.441 3.77125C15.3875 3.5875 15.2361 3.5 15.0668 3.4825L15.343 2.58125L15.4588 2.19625L15.1292 2.4325L14.5501 2.84375L13.9711 2.4325L13.6415 2.19625L13.7573 2.58125L14.0334 3.4825C13.8731 3.50875 13.7127 3.59625 13.6593 3.77125L12.8486 3.52625L12.4477 3.40375L12.6883 3.73625L13.107 4.305L12.6883 4.87375L12.4477 5.20625L12.8486 5.08375L13.7573 4.8125C13.7306 4.9 13.7662 5.005 13.9265 5.005H14.0691L13.7662 5.97625L13.7216 6.09875C13.3742 6.16 13.0001 6.27375 12.715 6.46625C11.833 4.795 12.0825 3.0975 12.8219 2.5375C12.813 2.89625 13.1248 3.3775 13.2762 3.47375C13.1782 3.10625 13.3475 2.45 13.1515 2.28375C13.0179 2.17 12.813 2.1175 12.5903 2.1175C12.7417 1.8725 12.9466 1.56625 13.294 1.12C13.8107 0.8925 13.9622 0.2975 14.0869 0C13.5257 0.20125 13.107 0.49 13.0179 0.95375C12.8219 1.21625 12.5992 1.5225 12.3497 1.88125C12.3676 1.44375 12.1181 1.295 11.7974 1.26875C10.8531 1.46125 10.9155 2.135 10.1048 2.59875C10.6571 2.79125 11.5302 1.5925 11.833 1.72375C11.8776 2.45875 11.7083 3.03625 11.7083 3.43875C11.5658 3.28125 11.4945 3.17625 11.3698 3.15875C11.254 3.14125 10.9333 3.1675 10.7195 3.40375C10.6571 3.78 10.6749 4.48 10.3186 5.31125C10.8442 4.83875 11.1025 3.9025 11.1827 3.63125C11.3164 3.815 11.4678 4.2175 11.5034 4.5675C11.5658 5.2325 11.9845 6.3525 12.3408 6.88625C12.2428 7.07 12.2161 7.28 12.2517 7.51625C11.9756 7.7175 11.9399 7.9975 12.0379 8.19C12.1448 8.39125 12.4121 8.53125 12.7328 8.40875L12.8308 8.365C13.1693 8.225 13.7929 7.97125 14.5501 7.97125C15.3074 7.97125 15.9399 8.225 16.2695 8.365L16.3675 8.40875C16.6882 8.53125 16.9554 8.39125 17.0623 8.19C17.1603 7.9975 17.1247 7.7175 16.8485 7.51625C16.8842 7.27125 16.8485 7.04375 16.7327 6.8425L16.7416 6.85125C17.392 5.94125 17.4365 4.20875 17.971 3.71875C18.0155 4.3225 18.3452 4.83 18.6659 4.9C18.4164 4.47125 18.4164 3.64 18.4342 3.255ZM15.4677 4.06875L15.9488 3.92L15.7172 4.235L15.6548 4.31375L15.7172 4.3925L15.9488 4.7075L15.343 4.52375C15.3875 4.40125 15.4321 4.27 15.4677 4.06875ZM13.1693 4.71625L13.4009 4.40125L13.4633 4.3225L13.4009 4.24375L13.1693 3.92875L13.6504 4.0775C13.6771 4.27875 13.7216 4.41875 13.7751 4.54125L13.1693 4.71625ZM15.0668 4.55875H14.6927L14.7372 3.9025C15.2985 3.64875 15.2539 4.165 15.0668 4.55875ZM14.9599 5.67875L14.6392 5.45125L14.559 5.39L14.4789 5.45125L14.1582 5.67875L14.3631 5.01375H14.755L14.9599 5.67875ZM14.47 3.1325L14.5501 3.19375L14.6303 3.1325L14.9599 2.89625L14.7729 3.5175C14.7639 3.5175 14.755 3.5175 14.755 3.52625C14.7194 3.4475 14.6392 3.395 14.5501 3.395C14.4611 3.395 14.3809 3.4475 14.3452 3.52625C14.3363 3.52625 14.3363 3.52625 14.3274 3.5175L14.1403 2.89625L14.47 3.1325ZM14.0424 4.55875C13.8553 4.165 13.8107 3.64875 14.372 3.9025L14.4165 4.55875H14.0424ZM14.5501 5.73125L15.0045 6.055C14.8085 6.0375 14.6481 6.0375 14.5501 6.0375C14.4521 6.0375 14.2918 6.0375 14.0958 6.055L14.5501 5.73125ZM12.6972 8.04125L12.5992 8.07625C12.4656 8.12875 12.3765 8.085 12.3408 8.02375C12.3052 7.95375 12.3319 7.84 12.4923 7.74375C12.5101 7.735 12.5368 7.7175 12.5635 7.70875L12.8843 7.9625C12.813 7.9975 12.7506 8.02375 12.6972 8.04125ZM13.784 7.7L13.4544 7.385C13.7306 7.315 14.0156 7.27125 14.2918 7.25375L14.4878 7.63C14.2383 7.63 13.9978 7.665 13.784 7.7ZM15.6192 7.77L15.4232 7.3325C15.7172 7.385 16.0022 7.4725 16.2517 7.5775L16.3675 8.0325C16.1804 7.95375 15.931 7.84875 15.6192 7.77ZM14.5501 6.90375C13.9265 6.90375 13.2139 7.0525 12.6704 7.28C12.6794 7.1575 12.7239 7.06125 12.7952 6.965C13.107 6.58875 13.9355 6.4575 14.5412 6.4575C15.147 6.4575 15.9755 6.58875 16.2873 6.965C16.3675 7.0525 16.4031 7.1575 16.412 7.28C15.8864 7.04375 15.1916 6.90375 14.5501 6.90375Z" fill="white"/>
<path d="M10.0958 16.6603C10.176 15.9516 10.0602 15.8903 9.85526 15.7241C9.67709 15.5753 9.3742 15.5316 9.08022 15.3303C8.86641 15.1816 8.80405 14.9803 8.5368 14.7003C8.59025 14.1053 9.02676 13.3703 9.34747 13.2041C9.39201 13.1778 9.3831 12.2503 9.3831 12.2503C9.3831 12.2503 9.59691 12.2416 9.57909 12.2328C9.29402 12.0578 8.94659 12.1891 8.69715 12.4778C8.45662 12.6703 7.89538 13.0378 7.51232 13.1691C6.99563 12.7403 6.18495 12.3553 5.58808 11.7778C5.58808 11.7778 6.37203 11.7691 6.73728 11.6291C6.83527 11.5678 7.08471 11.1828 6.97781 10.8066C6.85309 10.7628 6.68383 10.6753 6.50566 10.5791C6.29185 10.4566 6.08696 10.3341 5.98896 10.2553C5.65044 10.0016 5.50791 9.78282 4.91994 9.63407C4.95558 9.37157 5.01794 9.43282 5.27628 9.25782C5.6059 9.03907 5.79298 8.77657 5.92661 8.51407C6.0246 8.31282 5.90879 7.89282 5.65044 8.42657C5.56136 8.61032 5.30301 8.86407 5.00903 8.94282C5.03575 8.77657 5.04466 8.68032 5.04466 8.59282C5.90879 7.99782 5.8197 7.47282 5.75734 6.97407C5.70389 6.68532 5.41882 6.56282 5.42773 6.86032C5.43664 7.06157 5.61481 7.62157 5.02685 7.94532C5.00903 7.70032 4.94667 7.58657 4.89322 7.46407C5.41882 6.78157 5.19611 6.12532 4.9734 5.82782C4.83086 5.63532 4.49234 5.57407 4.64378 5.87157C4.77741 6.11657 4.9823 6.79032 4.59033 7.06157C4.4567 6.90407 4.30526 6.83407 4.25181 6.61532C4.28744 5.88032 4.2429 5.42532 4.1449 5.16282C4.05582 4.91782 3.81529 4.76032 3.83311 5.12782C3.85092 5.53907 3.88656 6.05532 3.85092 6.08157C3.81529 6.11657 3.26296 5.60907 3.04025 5.46032C2.80863 5.30282 2.54137 5.36407 2.79972 5.67032C3.04025 5.93282 3.74402 6.44907 3.65494 6.61532C3.60149 6.72032 3.0937 6.30907 2.82645 6.22157C2.55919 6.13407 2.47901 6.27407 2.70173 6.44907C3.06698 6.73782 3.30751 6.93032 3.90437 7.13157C4.50124 7.32407 4.79523 8.13782 4.60815 9.29282C4.59924 9.34532 4.50124 9.33657 4.43889 9.31907C4.41216 8.88157 4.33198 8.34782 4.22508 8.12032C4.08254 7.80532 3.80638 7.80532 3.90437 8.21657C3.98455 8.54032 4.02909 8.89907 3.97564 9.33657C3.48568 9.25782 3.2986 9.12657 3.0937 9.00407C3.07588 8.77657 3.19169 8.40907 3.20951 8.08532C3.22733 7.76157 3.03134 7.56032 2.92444 7.96282C2.81754 8.35657 2.74627 8.54032 2.68391 8.82032C2.54137 8.77657 2.38993 8.71532 2.32757 8.63657C2.29194 8.60157 2.32757 8.16407 2.29194 7.84032C2.2563 7.48157 2.11377 7.49032 2.00686 7.80532C1.95341 7.95407 1.91778 8.14657 1.89996 8.37407C1.7307 8.27782 1.61489 8.08532 1.59707 7.91907C1.6238 7.54282 1.68616 7.14907 1.7307 6.89532C1.76633 6.72032 1.64161 6.35282 1.49908 6.79032C1.39218 7.11407 1.36545 7.37657 1.30309 7.59532C1.17837 7.58657 1.01802 6.87782 0.928934 6.41407C0.8933 6.21282 0.71513 5.97657 0.679496 6.43157C0.643862 6.94782 0.750764 7.46407 0.884392 7.69157C0.634954 7.66532 0.394424 7.21907 0.216254 6.95657C0.0648096 6.72907 -0.015367 6.96532 0.00245005 7.06157C0.153895 7.97157 0.8933 8.29532 1.22292 8.35657C1.73961 9.08282 2.72845 9.39782 3.56585 9.75657C2.47901 9.74782 2.19394 10.1766 1.69507 9.89657C1.71288 10.2991 1.91778 10.4828 2.11377 10.5791C2.2563 10.6403 2.38993 10.6578 2.45229 10.6753C2.54137 11.1653 3.01352 11.1391 3.41441 11.1653C3.3075 12.1191 3.43222 13.3791 4.27853 14.3153C4.25181 14.7966 4.21617 15.4353 4.22508 15.8553C3.53913 16.4766 2.91553 17.8066 2.675 18.5416C2.48792 19.0928 2.21176 19.5216 1.78415 19.7228C2.13158 20.0816 2.64828 19.9066 2.95116 19.7053C2.96898 20.0291 3.04916 20.2566 3.10261 20.4491C2.90662 20.7378 2.76409 20.9391 2.7819 21.2978C2.55919 21.3591 2.39884 21.4991 2.28303 21.6478C2.20285 21.7441 2.29194 22.1816 2.38102 22.3653C2.65718 22.9778 2.44338 24.3603 2.38993 24.7628C2.50574 24.7716 2.71954 24.7716 2.76409 24.6053C2.83535 24.6666 3.00462 24.7891 3.08479 25.0516C3.06698 25.1653 2.99571 25.5941 3.21842 25.6466C3.39659 25.6903 4.18054 25.6641 4.28744 25.5328C4.20726 25.4453 4.07364 25.2353 3.99346 25.0341C3.99346 24.8241 3.97564 24.5703 3.91328 24.4653C3.8242 24.3078 3.60149 23.9578 3.45004 23.8178C3.42332 23.5641 3.39659 22.4353 3.5124 22.0066C3.7173 21.8666 5.08921 20.8691 5.37428 19.9066C5.62372 19.9941 5.55245 20.6591 5.55245 21.5253C5.55245 21.7616 5.83752 21.8753 6.01569 21.9016C6.38985 21.9453 6.91545 22.2953 7.51232 23.1616C7.62813 23.0391 7.77957 22.9253 7.77957 22.9253C7.85975 23.0303 7.94883 23.2753 8.00229 23.4328C8.06465 23.5553 8.5457 23.6253 8.91095 23.5116C9.03567 23.4678 9.10694 23.4503 9.18712 23.3191C8.72388 22.5228 8.4388 21.9891 7.84193 21.5516C7.56577 21.3503 7.19161 21.2453 6.87981 21.0528C7.08471 20.6678 7.65485 18.8828 7.31633 18.2266C7.20052 18.0078 6.764 17.7978 6.2384 17.8941C6.67492 17.3778 7.57468 16.3453 7.69049 16.0303C7.79739 16.1528 8.32299 16.0653 8.71497 16.2228C8.8575 16.2841 9.25839 16.7916 9.2762 16.9666C9.31184 17.2816 9.32965 17.6578 9.10694 18.5241C9.26729 18.4978 9.24057 18.4891 9.39201 18.4278C9.41874 18.6553 9.34747 18.8391 9.14258 19.1891C9.19603 19.5041 9.33856 19.9853 9.49001 20.0728C9.68599 19.4866 10.4254 18.6641 10.4076 18.1741C10.3719 17.5091 10.0602 16.9491 10.0958 16.6603Z" fill="white"/>
</svg>
